<?xml version="1.0" encoding="UTF-8"?>
<svg id="_レイヤー_1のコピー_2" data-name="レイヤー 1のコピー 2" xmlns="http://www.w3.org/2000/svg" viewBox="0 0 489 70">
  <defs>
    <style>
      .cls-1 {
        fill: #282833;
      }

      .cls-1, .cls-2, .cls-3 {
        stroke-width: 0px;
      }

      .cls-2 {
        fill: #29abe2;
      }

      .cls-3 {
        fill: #fff;
      }
    </style>
  </defs>
  <g>
    <path class="cls-1" d="M317.36,59.82c-1.41,0-2.81-.65-3.51-2.22l-4.27-9.19h-20.6l-4.16,9.19c-.7,1.57-2.11,2.22-3.51,2.22-1.95,0-3.95-1.35-3.95-3.41,0-.49.11-1.03.38-1.57l16.11-35.09c1.03-2.27,3.24-3.41,5.52-3.41s4.43,1.14,5.46,3.41l16.11,35.09c.27.54.38,1.08.38,1.57,0,2.05-2,3.41-3.95,3.41ZM299.31,25.65l-7.08,15.57h14.16l-7.08-15.57Z"/>
    <path class="cls-1" d="M355.75,21.11l-13.52,34.87c-.97,2.54-3.24,3.84-5.51,3.84s-4.49-1.3-5.52-3.84l-13.62-34.87c-.22-.49-.32-.97-.32-1.41,0-2.05,2.06-3.35,4.05-3.35,1.41,0,2.81.65,3.41,2.16l11.95,30.6,12-30.6c.59-1.51,2-2.16,3.41-2.16,2,0,4,1.3,4,3.3,0,.43-.11.92-.32,1.46Z"/>
  </g>
  <path class="cls-2" d="M250.15,51c-2.07,3.33-4.3,5.11-7.43,5.11-5.48,0-8.48-5.61-8.48-12.32,0-12.87,9.58-19.7,20.21-19.7,12.87,0,18.02,8.4,18.02,17.59,0,2.11,0,9.41-7.68,14.47-4.35,2.91-9.54,3.29-10.21,3.29-2.78,0-2.83-2.57-2.83-2.91,0-2.19,1.56-2.45,3.12-2.66,3.38-.51,11.77-1.81,11.77-12.57,0-6.92-3.75-11.52-10.34-11.94-1.39,10.97-4.09,18.23-6.16,21.64ZM246.01,31.39c-4.85,3-6.37,8.35-6.37,12.49s1.65,6.33,3.33,6.33c1.77,0,3.04-2.36,4.18-5.4,2.32-6.16,3.04-10.72,3.67-15.32-.97.25-2.78.67-4.81,1.9Z"/>
  <g>
    <path class="cls-2" d="M119.21,28.09c0-1.85.65-3.46,3.41-3.46,3.11,0,3.66,1.75,3.66,4.76,0,2.2-.5,8.02-.6,8.87,4.66,2,6.31,3.01,6.31,5.01,0,1.6-1.3,3.66-3.06,3.66-.95,0-1.25-.15-4.41-1.8-2.86,10.52-9.97,15.53-13.73,15.53-1.7,0-3.26-1.65-3.26-3.36,0-1.6.65-2,4.91-4.51,4.76-2.81,5.71-8.67,6.01-10.37-2.1-.8-7.21-2.5-10.72-3.06-1.05,4.06-2.45,7.97-4.16,11.77-1.85,4.26-4.16,6.66-7.66,6.66-4.01,0-9.27-3.46-9.27-10.52,0-4.61,2.36-10.42,9.67-12.88,2.91-1,5.51-1.1,6.71-1.2.15-.8,1.2-4.56,1.3-5.06.15-.65.55-2.71.55-3.26,0-.9-.5-1.3-1.9-1.3-.3,0-7.72.45-9.22.45-1.05,0-3.46,0-3.46-3.16s2.25-3.21,4.21-3.21c3.26,0,8.47-.25,11.72-.25,1.1,0,5.46,0,5.46,4.21,0,1.8-.65,4.76-.8,5.46-.2,1-1.45,5.51-1.65,6.41,1.3.2,4.26.75,9.87,2.41.1-2.61.1-3.11.1-7.82ZM97.97,39.71c-3.86,1.4-5.66,4.31-5.66,7.62s2.15,4.21,3.01,4.21c1.3,0,2.3-1.4,3.56-4.51,1.2-2.91,1.9-5.11,2.66-8.07-2.05.3-2.66.4-3.56.75Z"/>
    <path class="cls-2" d="M147.08,19.62c.6-1.75,1.25-3.51,3.61-3.51,1.2,0,3.61.7,3.61,2.91,0,1.1-.5,2.5-1.95,6.01-1.45,3.61-2.45,6.31-4.66,12.22,2.45-1.9,4.06-3.16,7.26-3.16,6.21,0,7.97,4.06,7.97,8.62,0,1.1-.35,6.66-.35,6.91,0,.75,0,4.06,3.31,4.06,3.76,0,5.26-4.06,6.01-8.27.25-1.55.3-2.36.5-6.76.1-1.75.3-3.66,3.36-3.66,3.46,0,3.46,2.6,3.46,3.91,0,3.86-.7,9.12-2,12.83-.65,1.75-2.86,6.76-8.27,8.12-1.75.45-2.96.45-3.56.45-2.86,0-6.26-.9-7.87-3.81-1.3-2.36-1.3-4.36-1.3-5.76,0-.95.25-5.21.25-6.06,0-2.15-.15-4.36-3.46-4.36-2.86,0-6.51,3.01-8.42,7.77-.55,1.4-1.3,3.56-2.25,7.61-.6,2.56-1,4.06-3.51,4.06-1.2,0-3.51-.6-3.51-3.11,0-.9.1-1.25,1.15-4.66,2.86-9.27,5.86-18.54,9.02-27.7l1.6-4.66Z"/>
    <path class="cls-2" d="M190.57,49.33c-.8,1.4-1.55,2.36-3.31,2.36-2.05,0-3.56-1.45-3.56-2.91,0-1.2.25-1.65,3.66-7.56,2.05-3.51,3.61-7.97,4.86-11.82-1.45.05-5.91.1-6.76-.1-.95-.25-1.85-1.15-1.85-2.96,0-2.6,1.8-2.91,2.45-3.01.4-.05,7.01-.2,7.97-.2.2-.8.85-4.51,1.1-5.26.35-1.2,1.35-1.9,2.96-1.9.7,0,3.61.1,3.61,2.66,0,1.1-.35,2.35-.85,4.26.45,0,4.71-.2,4.81-.2.9,0,3.21.05,3.21,3.11s-2.2,3.06-3.36,3.11c-1.4.05-4.01.15-6.51.3-1.65,5.26-4.06,12.53-8.42,20.14ZM210.81,33.55c-.1-1.35.25-3.21,3.21-3.21,1.9,0,3.16.8,3.26,2.91l.55,10.22c2.81,1.35,5.41,3.06,7.72,5.11,1.25,1.15,1.8,2.1,1.8,3.21,0,1.6-1.2,3.41-3.26,3.41-1.05,0-1.55-.55-3.61-2.25-1.95-1.6-2.25-1.7-3.06-2.41,0,1.8-.05,3.36-.85,4.96-2.45,4.96-8.22,5.01-9.92,5.01-8.87,0-12.22-4.86-12.22-9.52,0-4.21,3.01-9.87,13.08-9.87,1.65,0,2.81.15,3.91.3l-.6-7.87ZM207,46.47c-2.45,0-6.76.65-6.76,4.36,0,4.11,5.06,4.11,5.96,4.11,5.41,0,5.51-3.46,5.46-7.62-.95-.4-2.15-.85-4.66-.85ZM213.77,18.67c1.9,0,7.56,3.06,11.77,6.36,1.5,1.2,2.2,2.25,2.2,3.51,0,1.9-1.75,3.31-3.31,3.31-1.15,0-1.85-.6-2.96-1.55-3.11-2.71-3.71-3.01-9.22-6.01-.5-.3-1.75-1-1.75-2.5,0-.7.35-1.35.5-1.6.3-.45,1.2-1.5,2.76-1.5Z"/>
  </g>
  <g>
    <path class="cls-1" d="M362.77,54.93c0,2-1.61,3.66-3.66,3.66s-3.61-1.65-3.61-3.66,1.65-3.66,3.61-3.66,3.66,1.61,3.66,3.66Z"/>
    <path class="cls-1" d="M390.54,39.61c0,2.26-2.44,2.39-3.05,2.39-2.09,0-2.39-.96-2.83-2.26-.35-1.04-1.61-3.79-5.4-3.79-5.7,0-6.53,5.4-6.53,8.7,0,2.7.61,8.79,6.53,8.79,1.74,0,4.18-.3,5.44-3.87.57-1.61.91-2.61,3.05-2.61.48,0,2.92.09,2.92,2.39,0,.78-1.22,9.23-11.49,9.23s-12.66-7.66-12.66-13.88c0-8.1,4.48-13.88,12.49-13.88,8.88,0,11.53,6.61,11.53,8.79Z"/>
    <path class="cls-1" d="M418.61,44.71c0,7.18-4.09,13.88-12.88,13.88s-12.88-6.7-12.88-13.88,4-13.88,12.88-13.88,12.88,6.79,12.88,13.88ZM399.07,44.71c0,3.61,1.65,8.7,6.66,8.7s6.7-5.09,6.7-8.7-1.57-8.75-6.7-8.75-6.66,5.4-6.66,8.75Z"/>
    <path class="cls-1" d="M458,55.72c0,1.78-.87,2.87-2.92,2.87-1.78,0-3.09-.61-3.09-2.87v-15.28c0-4.09-2.92-4.4-3.79-4.4-3.22,0-4.66,3.18-4.66,5.92v13.75c0,.78-.09,2.87-2.92,2.87-1.61,0-3.09-.48-3.09-2.87v-15.15c0-3.96-2.48-4.53-3.79-4.53-4.53,0-4.7,5.74-4.7,5.88v13.8c0,.78-.04,2.87-2.87,2.87-1.79,0-3.13-.61-3.13-2.87v-22.07c0-.78.09-2.83,2.92-2.83,1.74,0,3.09.52,3.09,2.83v1.13c.87-1.26,2.61-3.96,6.7-3.96,4.39,0,6.14,3.39,6.61,4.35.91-1.35,2.83-4.35,7.4-4.35,3.74,0,8.23,2.31,8.23,8.75v16.15Z"/>
  </g>
  <path class="cls-1" d="M481.9,11.01l-7.09.37c-1.07.07-2.25-.3-2.25-2.03,0-1.51.85-1.96,2.18-1.99l10.01-.41c3.18-.11,4.39.7,4.25,4.28l-.44,9.86c-.04.59-.11,2.22-2.03,2.22-1.74,0-2.1-1.37-2.03-2.33l.44-7.24-7.68,7.61c.3.52,1.14,2.07,1.14,4.28,0,4.5-3.69,8.38-8.42,8.38s-8.42-3.84-8.42-8.42,3.91-8.45,8.34-8.45c1.96,0,3.62.74,4.5,1.29l7.49-7.42ZM465.43,25.59c0,2.47,1.99,4.54,4.54,4.54s4.54-2.07,4.54-4.54-2.07-4.58-4.54-4.58-4.54,2.03-4.54,4.58Z"/>
  <circle class="cls-2" cx="35" cy="35" r="35"/>
  <path class="cls-3" d="M42.78,26.4c0-1.46.51-2.72,2.68-2.72,2.44,0,2.87,1.38,2.87,3.74,0,1.73-.39,6.3-.47,6.97,3.66,1.58,4.96,2.36,4.96,3.94,0,1.26-1.02,2.87-2.4,2.87-.75,0-.98-.12-3.46-1.42-2.24,8.27-7.83,12.2-10.79,12.2-1.34,0-2.56-1.3-2.56-2.64,0-1.26.51-1.58,3.86-3.54,3.74-2.2,4.49-6.81,4.72-8.15-1.65-.63-5.67-1.97-8.43-2.4-.83,3.19-1.93,6.26-3.27,9.25-1.46,3.35-3.27,5.24-6.02,5.24-3.15,0-7.28-2.72-7.28-8.27,0-3.62,1.85-8.19,7.6-10.12,2.28-.79,4.33-.87,5.28-.95.12-.63.94-3.58,1.02-3.98.12-.51.43-2.13.43-2.56,0-.71-.39-1.02-1.5-1.02-.24,0-6.06.35-7.24.35-.83,0-2.72,0-2.72-2.48s1.77-2.52,3.31-2.52c2.56,0,6.65-.2,9.21-.2.87,0,4.29,0,4.29,3.31,0,1.42-.51,3.74-.63,4.29-.16.79-1.14,4.33-1.3,5.04,1.02.16,3.35.59,7.76,1.89.08-2.05.08-2.44.08-6.14ZM26.08,35.53c-3.03,1.1-4.45,3.39-4.45,5.98s1.69,3.31,2.36,3.31c1.02,0,1.81-1.1,2.8-3.54.94-2.28,1.5-4.02,2.09-6.34-1.61.24-2.09.32-2.8.59Z"/>
</svg>