<?xml version="1.0" encoding="UTF-8"?>
<svg version="1.1" xmlns="http://www.w3.org/2000/svg" width="1100" height="300">
<path d="M0 0 C1.32365067 -0.00503792 1.32365067 -0.00503792 2.67404175 -0.01017761 C5.56933021 -0.01961795 8.46456042 -0.02162713 11.35986328 -0.02270508 C13.38713606 -0.02592212 15.41440861 -0.02928652 17.44168091 -0.03279114 C21.68313129 -0.03876486 25.92456134 -0.04063281 30.16601562 -0.04003906 C35.58154046 -0.03993746 40.99693413 -0.05359553 46.4124279 -0.07081127 C50.59734691 -0.08196781 54.78223455 -0.08395716 58.9671669 -0.08342934 C60.96290667 -0.08460372 62.9586474 -0.08899482 64.95437241 -0.0967617 C67.75352751 -0.10663706 70.55240219 -0.10365416 73.3515625 -0.09765625 C74.56918274 -0.10608551 74.56918274 -0.10608551 75.81140137 -0.11468506 C82.90988204 -0.07633008 91.57940148 0.48304349 97.80517578 4.14526367 C103.27664241 11.28856732 103.35180618 17.40930003 102.80517578 26.14526367 C102.24872964 29.4226371 101.63116055 32.34886561 99.80517578 35.14526367 C93.80517578 39.14526367 93.80517578 39.14526367 70.80517578 42.14526367 C70.80517578 93.62526367 70.80517578 145.10526367 70.80517578 198.14526367 C75.53607331 199.72222951 77.8638041 200.3998768 82.54345703 200.41088867 C83.61144531 200.4134668 84.67943359 200.41604492 85.77978516 200.41870117 C86.88128906 200.4109668 87.98279297 200.40323242 89.11767578 200.39526367 C90.7525293 200.40686523 90.7525293 200.40686523 92.42041016 200.41870117 C101.88745228 200.39593017 110.10655578 198.85344033 118.80517578 195.14526367 C119.45228516 194.8694043 120.09939453 194.59354492 120.76611328 194.30932617 C126.41163334 191.69855207 131.05396413 188.12579384 135.80517578 184.14526367 C136.57603516 183.50975586 137.34689453 182.87424805 138.14111328 182.21948242 C142.76305412 178.24820316 146.74427868 174.07794473 150.5793457 169.36230469 C156.16545748 162.54631361 160.61637424 157.33893749 169.80517578 156.14526367 C178.89506339 155.32911215 186.62483063 156.05509109 194.80517578 160.14526367 C194.92125705 155.7288177 194.99238898 151.3127635 195.05517578 146.89526367 C195.10544922 145.01387695 195.10544922 145.01387695 195.15673828 143.09448242 C195.17607422 141.28657227 195.17607422 141.28657227 195.19580078 139.44213867 C195.22722168 137.77683105 195.22722168 137.77683105 195.25927734 136.07788086 C194.69875219 132.45797327 193.62983786 131.39606664 190.80517578 129.14526367 C189.32017578 128.21713867 189.32017578 128.21713867 187.80517578 127.27026367 C184.34232059 124.81740791 182.83376852 122.87010522 180.80517578 119.14526367 C180.4693216 116.2961956 180.33003395 113.90518205 180.43017578 111.08276367 C180.43210937 110.04152344 180.43210937 110.04152344 180.43408203 108.97924805 C180.50298948 104.94816228 180.62223769 101.56981999 182.80517578 98.14526367 C187.96753416 93.92129847 193.97974837 91.75765047 200.24267578 89.70776367 C201.9992906 89.11301986 203.75579903 88.51796172 205.51220703 87.92260742 C206.39086426 87.62854004 207.26952148 87.33447266 208.17480469 87.03149414 C212.27385421 85.65043327 216.35208478 84.21179882 220.43017578 82.77026367 C221.14616943 82.51962158 221.86216309 82.26897949 222.59985352 82.01074219 C226.26490469 80.72917407 226.26490469 80.72917407 229.80517578 79.14526367 C237.9974579 78.13146876 246.93745146 77.06111574 254.80517578 80.14526367 C259.49707646 84.09923631 261.02937658 89.24244369 261.80517578 95.14526367 C262.05347059 98.43446048 262.21632773 101.72534214 262.36767578 105.02026367 C262.41085937 105.8994043 262.45404297 106.77854492 262.49853516 107.68432617 C262.60386917 109.83782164 262.70495227 111.99152431 262.80517578 114.14526367 C263.13388672 113.3950293 263.46259766 112.64479492 263.80126953 111.87182617 C267.51437458 103.88210962 272.20270877 94.71404602 280.58251953 90.87182617 C281.31599609 90.63206055 282.04947266 90.39229492 282.80517578 90.14526367 C282.80517578 89.48526367 282.80517578 88.82526367 282.80517578 88.14526367 C293.26640193 82.50386947 302.69060694 79.07325778 314.59033203 78.35620117 C316.84451164 78.27576211 316.84451164 78.27576211 318.80517578 77.14526367 C320.3027445 77.05026864 321.8046051 77.01539169 323.30517578 77.02026367 C324.49626953 77.01639648 324.49626953 77.01639648 325.71142578 77.01245117 C327.80517578 77.14526367 327.80517578 77.14526367 329.80517578 78.14526367 C331.75893747 78.35699106 333.71339991 78.56393258 335.6706543 78.74047852 C347.35052416 79.80478528 358.17841522 82.10630118 368.84033203 87.21557617 C371.12430717 88.29626421 373.45300892 89.22396435 375.80517578 90.14526367 C376.31306641 89.5187793 376.82095703 88.89229492 377.34423828 88.24682617 C383.77050937 80.61713353 383.77050937 80.61713353 389.80517578 79.14526367 C390.13517578 78.15526367 390.46517578 77.16526367 390.80517578 76.14526367 C392.69580078 74.46166992 392.69580078 74.46166992 395.05517578 72.70776367 C395.86599609 72.09932617 396.67681641 71.49088867 397.51220703 70.86401367 C398.26888672 70.29682617 399.02556641 69.72963867 399.80517578 69.14526367 C400.77455078 68.34088867 401.74392578 67.53651367 402.74267578 66.70776367 C404.80517578 65.14526367 404.80517578 65.14526367 406.80517578 65.14526367 C407.13517578 64.15526367 407.46517578 63.16526367 407.80517578 62.14526367 C408.46517578 62.14526367 409.12517578 62.14526367 409.80517578 62.14526367 C410.03978516 61.4465918 410.27439453 60.74791992 410.51611328 60.02807617 C413.28687662 53.83164179 419.21494198 45.72229433 425.55517578 42.89526367 C432.44567489 41.14106329 441.55477045 40.46313663 447.99267578 43.83276367 C453.7024454 48.52746313 455.33670291 54.49203646 456.05932617 61.66967773 C456.22085318 64.32809171 456.33732678 66.98359221 456.43017578 69.64526367 C456.48818359 71.02198242 456.48818359 71.02198242 456.54736328 72.42651367 C456.64067142 74.66590895 456.72645763 76.90531622 456.80517578 79.14526367 C457.38895996 79.15460938 457.97274414 79.16395508 458.57421875 79.17358398 C481.2982899 79.63120595 481.2982899 79.63120595 487.80517578 84.14526367 C491.97685638 89.07543166 491.95906231 94.90660333 491.99267578 101.14526367 C492.00685547 102.34151367 492.02103516 103.53776367 492.03564453 104.77026367 C491.66215411 110.23968277 489.83804569 114.40748181 485.80517578 118.14526367 C476.75700721 122.26891112 466.48834643 121.60730975 456.80517578 122.14526367 C456.80517578 144.91526367 456.80517578 167.68526367 456.80517578 191.14526367 C458.12517578 190.48526367 459.44517578 189.82526367 460.80517578 189.14526367 C468.28531256 186.815385 474.50035358 186.88140694 481.80517578 190.14526367 C486.58752471 193.70634449 488.77641123 197.17842925 489.80517578 203.14526367 C490.4270731 208.86671901 489.61976181 213.00136506 486.80517578 218.14526367 C484.61767578 220.58276367 484.61767578 220.58276367 481.80517578 223.14526367 C481.25087891 223.74081055 480.69658203 224.33635742 480.12548828 224.94995117 C469.70182494 236.06564196 456.7098945 243.70429689 441.30908203 244.55151367 C439.37065736 244.60090857 437.43168584 244.63222173 435.49267578 244.64526367 C434.58598145 244.65170898 433.67928711 244.6581543 432.74511719 244.66479492 C421.59540835 244.4533875 411.49069719 240.9822944 403.02001953 233.58666992 C396.49057402 226.62304133 393.58598237 217.37992289 391.48095703 208.26245117 C391.14644531 207.21444336 391.14644531 207.21444336 390.80517578 206.14526367 C390.14517578 205.81526367 389.48517578 205.48526367 388.80517578 205.14526367 C388.70205078 205.86198242 388.59892578 206.57870117 388.49267578 207.31713867 C385.68943776 218.84864055 374.90581229 228.71813234 365.17626953 234.80541992 C352.56275491 241.93299079 340.43747644 244.69145984 325.99267578 244.52026367 C324.75799561 244.5108374 323.52331543 244.50141113 322.2512207 244.49169922 C311.71051204 244.31730611 302.42355731 242.9055566 292.34423828 239.76245117 C291.57877686 239.52679443 290.81331543 239.2911377 290.0246582 239.04833984 C288.54678733 238.5849142 287.07487345 238.10185138 285.61108398 237.59570312 C280.78901422 236.0328395 278.43276975 236.26200514 273.80517578 238.14526367 C264.90711643 240.96832077 256.5661475 241.58783901 247.27392578 241.54370117 C245.90734706 241.54572986 244.54076941 241.54864784 243.17419434 241.55239868 C240.33021592 241.55678482 237.48652296 241.5505126 234.64257812 241.53637695 C231.03200289 241.51928692 227.42209712 241.52914833 223.81154633 241.54709435 C220.99561696 241.5580338 218.17984134 241.55443987 215.36390686 241.54671097 C213.39669347 241.54379064 211.42947363 241.55275915 209.46228027 241.56210327 C190.44164607 241.41487163 190.44164607 241.41487163 184.50646973 236.07846069 C182.68017578 233.95776367 182.68017578 233.95776367 181.10986328 231.78979492 C180.67931641 231.24709961 180.24876953 230.7044043 179.80517578 230.14526367 C179.14517578 230.14526367 178.48517578 230.14526367 177.80517578 230.14526367 C177.46486328 231.25901367 177.46486328 231.25901367 177.11767578 232.39526367 C175.48196417 235.82246896 174.01745475 237.12013128 170.80517578 239.14526367 C165.46698922 240.72591988 160.8294052 241.39592522 155.22879028 241.39923096 C154.15106285 241.40391093 154.15106285 241.40391093 153.05156314 241.40868545 C150.66742755 241.41660061 148.28355111 241.41036734 145.89941406 241.40405273 C144.18048962 241.40676553 142.46156635 241.41032808 140.74264526 241.41467285 C136.08967423 241.42376615 131.4367922 241.42026486 126.78381968 241.41391468 C121.90380018 241.40883721 117.02378811 241.41355114 112.14376831 241.41668701 C103.94771971 241.42032225 95.75170718 241.41553987 87.55566406 241.40600586 C78.09671067 241.39512943 68.63784355 241.39864278 59.17889225 241.40965867 C51.04275341 241.41875281 42.90664045 241.42000621 34.77049816 241.41478133 C29.91779663 241.41167238 25.06513556 241.4112225 20.21243668 241.41785431 C15.64710353 241.42365786 11.08188089 241.41957608 6.5165596 241.4080658 C4.8469206 241.40543493 3.17727221 241.4061572 1.50763702 241.41059113 C-20.45107398 241.46350097 -20.45107398 241.46350097 -25.14925957 237.49393082 C-27.89243147 234.55355446 -29.41634028 232.11640646 -30.19482422 228.14526367 C-33.01442317 229.11198331 -35.1115434 230.07817634 -37.44482422 231.95776367 C-50.64802004 242.4603058 -65.48625306 244.61858389 -81.88232422 244.64526367 C-83.17605957 244.65146729 -84.46979492 244.6576709 -85.80273438 244.6640625 C-96.74073422 244.52155011 -106.8570833 242.69978265 -117.19482422 239.14526367 C-118.40138672 238.7662793 -119.60794922 238.38729492 -120.85107422 237.99682617 C-122.1323566 237.58807351 -123.41360622 237.1792181 -124.69482422 236.77026367 C-125.33291016 236.57432617 -125.97099609 236.37838867 -126.62841797 236.17651367 C-133.8515719 233.84265207 -138.39941505 230.75208704 -142.19482422 224.14526367 C-143.1316514 221.33478211 -143.32604171 219.60202932 -143.34008789 216.69311523 C-143.34965767 215.345914 -143.34965767 215.345914 -143.35942078 213.97149658 C-143.3605336 213.00274597 -143.36164642 212.03399536 -143.36279297 211.03588867 C-143.36612137 210.03571716 -143.36944977 209.03554565 -143.37287903 208.00506592 C-143.37794422 205.88676412 -143.38028748 203.76845433 -143.38012695 201.65014648 C-143.38230629 198.42182089 -143.4004467 195.19384097 -143.41943359 191.96557617 C-143.42236909 189.9056815 -143.42435284 187.84578522 -143.42529297 185.78588867 C-143.43247849 184.82523499 -143.439664 183.8645813 -143.44706726 182.87481689 C-143.42919082 177.58304035 -143.10317565 173.10787201 -141.19482422 168.14526367 C-138.63232422 165.83276367 -138.63232422 165.83276367 -136.19482422 164.14526367 C-135.69982422 163.15526367 -135.69982422 163.15526367 -135.19482422 162.14526367 C-135.85482422 162.14526367 -136.51482422 162.14526367 -137.19482422 162.14526367 C-145.1565626 149.05606271 -148.34745828 135.75079323 -145.50732422 120.45776367 C-142.80763288 110.282004 -137.33558776 97.98519593 -128.19482422 92.14526367 C-127.53482422 92.14526367 -126.87482422 92.14526367 -126.19482422 92.14526367 C-125.69982422 90.66026367 -125.69982422 90.66026367 -125.19482422 89.14526367 C-122.66829302 87.65820277 -120.20370801 86.34806079 -117.56982422 85.08276367 C-116.51988281 84.55585938 -116.51988281 84.55585938 -115.44873047 84.01831055 C-108.88014119 80.79494902 -102.73341093 78.9849768 -95.38232422 78.58276367 C-91.13116863 78.46122481 -91.13116863 78.46122481 -87.19482422 77.14526367 C-79.89047639 76.91337961 -79.89047639 76.91337961 -76.19482422 78.14526367 C-74.2618363 78.33648398 -72.32843916 78.52459382 -70.39306641 78.68994141 C-63.0222791 79.34135294 -56.04301157 80.46573283 -48.94482422 82.58276367 C-48.25501465 82.78804688 -47.56520508 82.99333008 -46.85449219 83.20483398 C-41.06768616 85.02147316 -35.81707991 87.10323285 -31.44482422 91.39526367 C-30.87248047 91.93666992 -30.30013672 92.47807617 -29.71044922 93.03588867 C-25.78608165 98.49763735 -25.89743649 104.94504962 -25.92919922 111.40307617 C-25.92728577 112.26915497 -25.92537231 113.13523376 -25.92340088 114.02755737 C-25.92204673 115.84788302 -25.92568906 117.66821859 -25.93408203 119.48852539 C-25.94481879 122.26885665 -25.9341472 125.04854569 -25.92138672 127.82885742 C-25.92270794 129.60359842 -25.92526956 131.37833903 -25.92919922 133.15307617 C-25.92515076 133.98026154 -25.92110229 134.8074469 -25.91693115 135.65969849 C-25.95205249 139.99314398 -26.3380546 143.15269658 -28.19482422 147.14526367 C-27.91423293 151.37417524 -26.15377833 154.11137622 -23.81982422 157.58276367 C-14.73513181 171.17114402 -13.62396982 185.2459115 -14.19482422 201.14526367 C-12.23611992 201.00450052 -10.27786329 200.85749607 -8.31982422 200.70776367 C-7.22927734 200.62655273 -6.13873047 200.5453418 -5.01513672 200.46166992 C-2.24753451 200.31524664 -2.24753451 200.31524664 -0.19482422 199.14526367 C0.99930129 195.87223975 0.93092677 192.66073116 0.93215942 189.20658875 C0.93497925 187.99115387 0.93779907 186.77571899 0.94070435 185.52345276 C0.93876008 184.17953476 0.93671191 182.83561691 0.93457031 181.49169922 C0.93592563 180.07391312 0.93770629 178.65612737 0.93988037 177.23834229 C0.94444046 173.38904958 0.94267065 169.53978366 0.93950129 165.69049048 C0.93696887 161.65920423 0.93931783 157.62792026 0.94088745 153.59663391 C0.94270719 146.82353301 0.94030861 140.050443 0.93554688 133.27734375 C0.93011122 125.45551798 0.93186263 117.6337183 0.93737328 109.81189317 C0.94191784 103.09158661 0.94254818 96.37128789 0.93993461 89.65098029 C0.93837838 85.6394898 0.93816001 81.62801154 0.9414711 77.61652184 C0.94436907 73.84168661 0.94233879 70.06688485 0.93657684 66.29205322 C0.93525928 64.90980395 0.93562624 63.52755185 0.93783951 62.14530373 C1.02491518 52.59032127 1.02491518 52.59032127 -0.19482422 43.14526367 C-1.98556605 41.35452184 -4.46978836 41.80494026 -6.87207031 41.6015625 C-22.2308136 40.23745297 -22.2308136 40.23745297 -27.19482422 35.14526367 C-29.89795842 30.10478637 -30.66864098 25.87663591 -30.56982422 20.14526367 C-30.58142578 19.47237305 -30.59302734 18.79948242 -30.60498047 18.10620117 C-30.5754173 13.00162794 -29.65897264 9.52959839 -27.19482422 5.14526367 C-24.99560547 3.62182617 -24.99560547 3.62182617 -22.50732422 2.77026367 C-21.69908203 2.4737793 -20.89083984 2.17729492 -20.05810547 1.87182617 C-13.42117609 0.18769403 -6.80580494 -0.00378072 0 0 Z M380.80517578 118.14526367 C380.78535645 118.7855249 380.76553711 119.42578613 380.74511719 120.08544922 C380.64953977 123.00161647 380.53999364 125.91709939 380.43017578 128.83276367 C380.39923828 129.84016602 380.36830078 130.84756836 380.33642578 131.88549805 C380.29775391 132.86196289 380.25908203 133.83842773 380.21923828 134.84448242 C380.18781738 135.73997803 380.15639648 136.63547363 380.12402344 137.55810547 C379.77736661 140.37090973 378.90393743 142.54457649 377.80517578 145.14526367 C377.30222545 148.54017841 376.97827265 150.96128874 379.00830078 153.86791992 C380.0592555 155.03299347 381.12779515 156.18239339 382.21142578 157.31713867 C384.76841962 160.25016102 386.21003131 163.62869517 387.80517578 167.14526367 C388.46517578 168.46526367 389.12517578 169.78526367 389.80517578 171.14526367 C389.80517578 154.31526367 389.80517578 137.48526367 389.80517578 120.14526367 C385.35017578 119.15526367 385.35017578 119.15526367 380.80517578 118.14526367 Z M261.80517578 146.14526367 C261.80517578 163.63526367 261.80517578 181.12526367 261.80517578 199.14526367 C262.13517578 199.14526367 262.46517578 199.14526367 262.80517578 199.14526367 C262.82499512 198.54053223 262.84481445 197.93580078 262.86523438 197.31274414 C262.96103877 194.54817858 263.07049133 191.78431193 263.18017578 189.02026367 C263.21111328 188.06893555 263.24205078 187.11760742 263.27392578 186.13745117 C263.48475926 181.07744777 264.01667336 176.92914414 265.80517578 172.14526367 C265.80517578 170.82526367 265.80517578 169.50526367 265.80517578 168.14526367 C266.42392578 168.00088867 267.04267578 167.85651367 267.68017578 167.70776367 C269.837759 167.21374142 269.837759 167.21374142 271.80517578 166.14526367 C270.61375682 162.78762841 269.0696932 159.78916281 267.30517578 156.70776367 C265.35555038 153.26860146 263.88363045 149.9688757 262.80517578 146.14526367 C262.47517578 146.14526367 262.14517578 146.14526367 261.80517578 146.14526367 Z M193.80517578 186.14526367 C192.96355724 188.22526378 192.13216815 190.30940513 191.30517578 192.39526367 C190.84111328 193.55541992 190.37705078 194.71557617 189.89892578 195.91088867 C188.59161346 199.20774734 188.59161346 199.20774734 188.80517578 203.14526367 C192.73593222 202.57073621 192.73593222 202.57073621 195.80517578 200.14526367 C196.04895461 196.78782255 196.04895461 196.78782255 195.93017578 193.02026367 C195.90310547 191.09827148 195.90310547 191.09827148 195.87548828 189.13745117 C195.85228516 188.1500293 195.82908203 187.16260742 195.80517578 186.14526367 C195.14517578 186.14526367 194.48517578 186.14526367 193.80517578 186.14526367 Z M-91.19482422 191.14526367 C-90.53482422 192.46526367 -89.87482422 193.78526367 -89.19482422 195.14526367 C-88.53482422 195.14526367 -87.87482422 195.14526367 -87.19482422 195.14526367 C-87.19482422 195.80526367 -87.19482422 196.46526367 -87.19482422 197.14526367 C-85.09182254 198.78362222 -85.09182254 198.78362222 -82.44482422 200.33276367 C-81.56310547 200.88319336 -80.68138672 201.43362305 -79.77294922 202.00073242 C-77.30239036 203.36906849 -77.30239036 203.36906849 -74.86669922 202.82104492 C-74.31498047 202.59803711 -73.76326172 202.3750293 -73.19482422 202.14526367 C-80.03346958 196.3916894 -80.03346958 196.3916894 -88.19482422 193.14526367 C-88.52482422 192.48526367 -88.85482422 191.82526367 -89.19482422 191.14526367 C-89.85482422 191.14526367 -90.51482422 191.14526367 -91.19482422 191.14526367 Z M318.80517578 194.14526367 C322.06663814 198.46190503 324.56320208 201.24923063 329.80517578 203.14526367 C332.10404586 202.94996216 332.10404586 202.94996216 333.80517578 202.14526367 C327.1948064 196.18607668 327.1948064 196.18607668 318.80517578 194.14526367 Z " fill="#000000" transform="translate(584.19482421875,30.854736328125)"/>
<path d="M0 0 C1.3602832 -0.01836914 1.3602832 -0.01836914 2.74804688 -0.03710938 C9.00268491 -0.05071627 14.82633121 -0.01137898 19.8125 4.1875 C22.87182637 9.83548714 23.08702366 15.69179093 21.5 21.875 C19.52302091 27.65247314 16.49365209 32.90977889 13.5625 38.2421875 C11.45841508 42.09648851 9.54011637 46.01953016 7.6875 50 C7.15640625 51.14082031 6.6253125 52.28164062 6.078125 53.45703125 C4.89070131 56.08448438 3.850162 58.74052107 2.83203125 61.4375 C-0.20389385 69.0968046 -4.06863807 76.38175209 -7.78515625 83.7265625 C-10.04424356 88.19204704 -12.28995657 92.66423932 -14.53515625 97.13671875 C-14.97441437 98.0112973 -15.41367249 98.88587585 -15.86624146 99.78695679 C-20.56260565 109.15388645 -25.08532654 118.59910924 -29.55078125 128.078125 C-30.47132295 129.99740113 -31.43142019 131.88917527 -32.40625 133.78125 C-34.35820506 137.64342502 -36.05342525 141.60818608 -37.76171875 145.58203125 C-41.28350211 153.73541192 -45.19785578 161.66185543 -49.21273804 169.58172607 C-51.20595865 173.51457514 -53.18510767 177.45448922 -55.1640625 181.39453125 C-55.54980942 182.1620874 -55.93555634 182.92964355 -56.33299255 183.72045898 C-59.79089417 190.61455747 -63.13074603 197.56080513 -66.41577148 204.53881836 C-69.21834487 210.4904899 -72.13977687 216.37237438 -75.109375 222.2421875 C-76.38283373 224.82333771 -77.55733291 227.41647387 -78.6875 230.0625 C-82.16063589 237.84811296 -84.85949742 242.71760034 -92.94921875 246.2890625 C-96.84631674 247.62887197 -100.45940935 248.0858305 -104.5625 248.1875 C-105.28050781 248.22617187 -105.99851562 248.26484375 -106.73828125 248.3046875 C-112.73109954 248.49628737 -118.83768291 248.04019161 -124.5625 246.1875 C-125.738125 244.8571875 -125.738125 244.8571875 -126.9375 243.5 C-129.2650216 240.93924523 -129.2650216 240.93924523 -131.84590149 241.17451477 C-132.8123912 241.29264023 -133.77888092 241.41076569 -134.7746582 241.5324707 C-140.94626671 242.12318945 -147.04371983 242.30964837 -153.24291992 242.33276367 C-154.23033834 242.33656697 -155.21775675 242.34037027 -156.23509693 242.34428883 C-159.42106311 242.35232533 -162.60699308 242.3543896 -165.79296875 242.35546875 C-168.03729778 242.35868816 -170.2816266 242.36205273 -172.5259552 242.36555481 C-177.20830777 242.37151263 -181.89064196 242.37339797 -186.57299805 242.37280273 C-192.55448024 242.37270083 -198.5358445 242.38639731 -204.5172987 242.40357494 C-209.14399248 242.41471901 -213.77065784 242.41672127 -218.39736366 242.41619301 C-220.60243451 242.41736778 -222.80750622 242.42176112 -225.01256371 242.42952538 C-228.0985472 242.43938235 -231.1842756 242.43642568 -234.27026367 242.43041992 C-235.61636215 242.43884918 -235.61636215 242.43884918 -236.98965454 242.44744873 C-251.56424807 242.37579762 -251.56424807 242.37579762 -257.03515625 238.3828125 C-257.55980469 237.69960938 -258.08445312 237.01640625 -258.625 236.3125 C-259.44677734 235.29542969 -259.44677734 235.29542969 -260.28515625 234.2578125 C-264.00454471 228.22944589 -263.36259183 219.97392187 -261.94921875 213.28515625 C-260.80219365 209.84408096 -259.85639825 207.0777707 -256.796875 204.97265625 C-254.72406364 204.15250845 -252.74444138 203.63880083 -250.5625 203.1875 C-249.06239515 202.7920642 -247.56239059 202.39624769 -246.0625 202 C-244.33 201.5978125 -244.33 201.5978125 -242.5625 201.1875 C-244.74126069 192.69033332 -250.57627415 185.98155847 -256.046875 179.328125 C-257.5625 177.1875 -257.5625 177.1875 -258.578125 174.484375 C-258.90296875 173.72640625 -259.2278125 172.9684375 -259.5625 172.1875 C-260.5525 171.8575 -261.5425 171.5275 -262.5625 171.1875 C-264.40749398 169.31132302 -265.9308599 167.26012391 -267.5625 165.1875 C-270.84023504 165.93900023 -270.84023504 165.93900023 -272.5625 169.1875 C-273.2225 169.1875 -273.8825 169.1875 -274.5625 169.1875 C-274.789375 169.70828125 -275.01625 170.2290625 -275.25 170.765625 C-277.03769361 174.06434535 -279.28140324 176.97207421 -281.5625 179.9375 C-282.01367188 180.53949219 -282.46484375 181.14148438 -282.9296875 181.76171875 C-284.09072502 183.27656356 -285.32177939 184.73719821 -286.5625 186.1875 C-287.2225 186.1875 -287.8825 186.1875 -288.5625 186.1875 C-288.830625 187.095 -289.09875 188.0025 -289.375 188.9375 C-290.5625 192.1875 -290.5625 192.1875 -292.1875 194.3125 C-293.95674244 196.33758093 -293.95674244 196.33758093 -293.5625 200.1875 C-292.69367188 200.41824219 -291.82484375 200.64898437 -290.9296875 200.88671875 C-278.86803092 204.30014058 -278.86803092 204.30014058 -274.5625 209.1875 C-271.59679334 216.38551721 -271.01591846 225.79098052 -273.5625 233.25 C-276.56011246 237.65274331 -280.52075903 240.40892611 -285.71125793 241.73750305 C-289.2552882 242.29683922 -292.73767467 242.33503319 -296.31518555 242.33276367 C-297.0801384 242.33612228 -297.84509125 242.3394809 -298.63322449 242.34294128 C-301.15523924 242.35241779 -303.67718731 242.354393 -306.19921875 242.35546875 C-307.96173632 242.35868457 -309.72425362 242.36204889 -311.48677063 242.36555481 C-315.18120949 242.37153851 -318.87562499 242.37339558 -322.57006836 242.37280273 C-327.28281894 242.37270137 -331.99541798 242.38632995 -336.70813274 242.40357494 C-340.35004857 242.41474696 -343.99192843 242.41672032 -347.63385963 242.41619301 C-349.37002902 242.4173662 -351.10619954 242.42175051 -352.84235191 242.42952538 C-374.69027605 242.51817508 -374.69027605 242.51817508 -381.03515625 238.69921875 C-386.25468808 232.71022276 -386.92531817 226.99763848 -386.5625 219.1875 C-385.99023503 214.59607176 -385.08839805 210.12301212 -382.5625 206.1875 C-380.49609375 204.9921875 -380.49609375 204.9921875 -378 204.0625 C-377.10023438 203.72734375 -376.20046875 203.3921875 -375.2734375 203.046875 C-372.88061922 202.28834471 -370.59040738 201.75751938 -368.125 201.3125 C-354.91315578 198.65145717 -344.06999192 188.07106277 -334.5625 179.1875 C-333.82 178.49914062 -333.0775 177.81078125 -332.3125 177.1015625 C-327.29332007 172.27956464 -323.02776785 167.08606198 -318.80908203 161.57397461 C-314.75962752 156.32133889 -310.35517742 151.50551221 -305.77734375 146.7109375 C-303.86592771 144.53320424 -302.71934947 142.80048337 -301.5625 140.1875 C-300.0625 138.4375 -300.0625 138.4375 -298.5625 137.1875 C-297.9025 137.1875 -297.2425 137.1875 -296.5625 137.1875 C-295.01399081 134.81919182 -294.5625 133.35204817 -294.5625 130.5 C-296.78324484 123.14378273 -302.23098187 117.18529232 -307.046875 111.328125 C-308.66886562 109.03727226 -309.62240286 106.82345864 -310.5625 104.1875 C-311.2225 104.1875 -311.8825 104.1875 -312.5625 104.1875 C-314.0703125 102.54296875 -314.0703125 102.54296875 -315.6875 100.375 C-316.49574219 99.31345703 -316.49574219 99.31345703 -317.3203125 98.23046875 C-318.5625 96.1875 -318.5625 96.1875 -318.5625 93.1875 C-320.0475 92.6925 -320.0475 92.6925 -321.5625 92.1875 C-323.21896685 90.07204767 -324.74507737 87.96864478 -326.25 85.75 C-327.14894335 84.45947334 -328.0500011 83.17041703 -328.953125 81.8828125 C-329.39720703 81.24891602 -329.84128906 80.61501953 -330.29882812 79.96191406 C-333.20063685 75.8872723 -336.37089604 72.03619889 -339.5625 68.1875 C-339.98144531 67.67832031 -340.40039062 67.16914062 -340.83203125 66.64453125 C-353.8845199 49.97811073 -353.8845199 49.97811073 -372.5 41.4375 C-378.21216643 40.16426358 -382.2420547 38.88202069 -385.71484375 33.96875 C-389.34321207 26.34416036 -388.39368492 16.04350097 -385.73046875 8.25390625 C-384.04075547 5.26441353 -382.0860725 4.14904587 -378.98828125 2.80859375 C-372.4977851 1.14677589 -365.93249828 1.03858039 -359.27587891 1.04223633 C-358.38369156 1.03887772 -357.49150421 1.0355191 -356.57228088 1.03205872 C-353.64452697 1.02261714 -350.71683065 1.02060913 -347.7890625 1.01953125 C-345.73936948 1.0163143 -343.68967668 1.0129499 -341.63998413 1.00944519 C-337.35145536 1.00347116 -333.0629467 1.00160355 -328.77441406 1.00219727 C-323.29835567 1.00229887 -317.82242698 0.98864078 -312.34639931 0.97142506 C-308.11515722 0.96026936 -303.88394617 0.95827914 -299.65269089 0.95880699 C-297.63462247 0.95763249 -295.61655311 0.95324066 -293.5984993 0.94547462 C-290.76821215 0.93560102 -287.93820243 0.93858151 -285.10791016 0.94458008 C-284.28681259 0.93896057 -283.46571503 0.93334106 -282.61973572 0.92755127 C-275.39415274 0.96617439 -266.97417418 1.6045056 -260.5625 5.1875 C-254.50699595 11.91583783 -255.00117608 18.55063515 -255.37890625 27.18554688 C-255.84785824 32.29911911 -257.84331285 35.71391102 -261.75 39.0625 C-265.59652472 40.60110989 -269.49687023 41.4346056 -273.5625 42.1875 C-268.95965581 50.47636169 -263.40703182 57.76362059 -257.5625 65.1875 C-256.34800808 66.7452179 -255.13850646 68.30686124 -253.9375 69.875 C-253.23753906 70.77798828 -253.23753906 70.77798828 -252.5234375 71.69921875 C-251.5625 73.1875 -251.5625 73.1875 -251.5625 75.1875 C-250.9025 75.1875 -250.2425 75.1875 -249.5625 75.1875 C-249.5625 75.8475 -249.5625 76.5075 -249.5625 77.1875 C-240.35168932 74.67546072 -232.73697534 63.58237339 -228.1328125 55.7578125 C-225.82166265 51.02394006 -225.42760818 48.4485879 -226.5625 43.1875 C-227.44292969 42.95675781 -228.32335937 42.72601563 -229.23046875 42.48828125 C-241.14011023 39.1440645 -241.14011023 39.1440645 -244.5625 34.1875 C-248.12494482 27.2322506 -247.25365775 18.12650432 -245.625 10.6875 C-244.66379034 7.84942598 -244.01060777 6.52469886 -241.60546875 4.71484375 C-234.8159155 1.48778181 -227.65930948 1.06488527 -220.2253418 1.04223633 C-219.17988693 1.03719841 -219.17988693 1.03719841 -218.11331177 1.03205872 C-215.82942885 1.02262891 -213.54561988 1.02060962 -211.26171875 1.01953125 C-209.65900137 1.01631303 -208.05628428 1.01294854 -206.4535675 1.00944519 C-203.10062988 1.00347376 -199.74771795 1.00160323 -196.39477539 1.00219727 C-192.1215092 1.00229875 -187.84840968 0.98865185 -183.57518291 0.97142506 C-180.26611083 0.96024648 -176.95707829 0.95827985 -173.64798927 0.95880699 C-172.07370238 0.95763549 -170.49941418 0.95326091 -168.9251461 0.94547462 C-145.96527615 0.84254658 -145.96527615 0.84254658 -137.5625 7.1875 C-133.13329461 13.6169917 -133.84662544 21.67081715 -134.5625 29.1875 C-135.78171259 34.0353215 -137.61569175 36.45766864 -141.5625 39.5 C-145.69072103 41.53303788 -150.14950036 42.38079933 -154.61328125 43.39453125 C-158.62051293 44.47197235 -161.91615813 46.22927936 -165.5625 48.1875 C-166.2225 48.1875 -166.8825 48.1875 -167.5625 48.1875 C-167.5625 48.8475 -167.5625 49.5075 -167.5625 50.1875 C-169.20337874 51.47824548 -170.90268552 52.69511027 -172.625 53.875 C-176.94466831 56.91992083 -180.66351002 60.03897308 -184.22265625 63.9375 C-185.5625 65.1875 -185.5625 65.1875 -187.5625 65.1875 C-187.830625 65.826875 -188.09875 66.46625 -188.375 67.125 C-189.5625 69.1875 -189.5625 69.1875 -192.5625 70.1875 C-192.8925 71.1775 -193.2225 72.1675 -193.5625 73.1875 C-194.2225 73.1875 -194.8825 73.1875 -195.5625 73.1875 C-195.8925 74.1775 -196.2225 75.1675 -196.5625 76.1875 C-197.2225 76.1875 -197.8825 76.1875 -198.5625 76.1875 C-198.8925 77.1775 -199.2225 78.1675 -199.5625 79.1875 C-200.2225 79.1875 -200.8825 79.1875 -201.5625 79.1875 C-201.81 79.744375 -202.0575 80.30125 -202.3125 80.875 C-203.78025784 83.590352 -205.62854916 85.78471259 -207.5625 88.1875 C-208.366875 89.5796875 -208.366875 89.5796875 -209.1875 91 C-209.64125 91.721875 -210.095 92.44375 -210.5625 93.1875 C-211.2225 93.1875 -211.8825 93.1875 -212.5625 93.1875 C-212.80613281 93.74824219 -213.04976562 94.30898437 -213.30078125 94.88671875 C-214.79915139 97.61904078 -216.68006838 99.67361668 -218.75 102 C-222.08720442 105.99501391 -222.08720442 105.99501391 -222.625 111.125 C-222.274375 112.135625 -221.92375 113.14625 -221.5625 114.1875 C-221.2325 115.1775 -220.9025 116.1675 -220.5625 117.1875 C-219.9025 117.1875 -219.2425 117.1875 -218.5625 117.1875 C-217.1898318 119.16071053 -215.85822383 121.16293152 -214.5625 123.1875 C-213.9025 123.8475 -213.2425 124.5075 -212.5625 125.1875 C-212.5625 126.1775 -212.5625 127.1675 -212.5625 128.1875 C-211.9025 128.1875 -211.2425 128.1875 -210.5625 128.1875 C-209.1171875 129.98828125 -209.1171875 129.98828125 -207.4375 132.5 C-204.80156438 136.37410997 -202.13029609 140.20953659 -199.375 144 C-198.74207031 144.87269531 -198.10914063 145.74539062 -197.45703125 146.64453125 C-195.54772092 149.20733748 -193.56612467 151.69802646 -191.5625 154.1875 C-181.5625 167.1625 -181.5625 167.1625 -181.5625 170.1875 C-180.5725 170.5175 -179.5825 170.8475 -178.5625 171.1875 C-177.01953125 172.75390625 -177.01953125 172.75390625 -175.375 174.75 C-172.26267679 178.42581751 -168.9713884 181.80841501 -165.53125 185.17578125 C-163.58748095 187.16197383 -161.83099109 189.2327142 -160.0625 191.375 C-153.77156319 198.53461851 -147.53014677 200.55171654 -138.37329102 202.51953125 C-132.46426899 203.91695871 -129.0077145 206.24195015 -125.5625 211.1875 C-123.00048333 208.89448815 -121.65947565 206.67381405 -120.21484375 203.56640625 C-119.77922119 202.64045654 -119.34359863 201.71450684 -118.89477539 200.76049805 C-118.20436157 199.27030151 -118.20436157 199.27030151 -117.5 197.75 C-116.51986726 195.6632923 -115.53806302 193.57736898 -114.5546875 191.4921875 C-114.05807617 190.43870117 -113.56146484 189.38521484 -113.04980469 188.29980469 C-110.43252956 182.82294596 -107.68404414 177.41182597 -104.91186523 172.01196289 C-102.96083339 168.16789952 -101.18599214 164.33220352 -99.625 160.3125 C-97.42903571 154.69263291 -94.74198438 149.36994211 -92 144 C-87.84052005 135.77330212 -83.76701826 127.51470905 -79.8125 119.1875 C-75.20836949 109.49994981 -70.54260299 99.84092726 -65.59326172 90.32373047 C-63.81236492 86.85813129 -62.23146972 83.40496159 -60.84765625 79.76171875 C-58.09662592 72.74023258 -54.60090934 66.07963615 -51.19543457 59.35934448 C-49.16701357 55.35599372 -47.15139366 51.34621963 -45.13671875 47.3359375 C-44.73965729 46.54595871 -44.34259583 45.75597992 -43.9335022 44.94206238 C-40.20868143 37.51454111 -36.60685938 30.03246872 -33.08764648 22.50512695 C-31.93458948 20.05436767 -30.75856785 17.61755278 -29.5625 15.1875 C-29.08361328 14.21312988 -28.60472656 13.23875977 -28.11132812 12.23486328 C-27.60537109 11.25114746 -27.09941406 10.26743164 -26.578125 9.25390625 C-25.89411621 7.90921265 -25.89411621 7.90921265 -25.19628906 6.53735352 C-22.45266731 2.59124483 -19.55905722 1.37188973 -14.91015625 0.51171875 C-9.94762058 0.04957316 -4.98077034 0.00355515 0 0 Z " fill="#000000" transform="translate(420.5625,29.8125)"/>
<path d="M0 0 C6.66752243 5.25237481 11.4300501 12.06643369 13.6640625 20.2578125 C14.67879754 33.44936802 13.54102288 44.01135281 4.9140625 54.5078125 C0.08711225 59.65456069 -4.38611968 62.39208056 -11.0859375 64.5078125 C-11.4159375 64.8378125 -11.7459375 65.1678125 -12.0859375 65.5078125 C-24.19303142 66.16431318 -34.67207806 65.27512506 -45.0859375 58.5078125 C-47.70933676 56.03670796 -49.92726811 53.387947 -52.0859375 50.5078125 C-52.87097656 49.55068359 -52.87097656 49.55068359 -53.671875 48.57421875 C-58.55593213 41.43701925 -58.79023821 31.84004798 -58.0859375 23.5078125 C-57.2109375 19.6328125 -57.2109375 19.6328125 -56.0859375 16.5078125 C-55.7146875 15.3734375 -55.3434375 14.2390625 -54.9609375 13.0703125 C-54.6721875 12.2246875 -54.3834375 11.3790625 -54.0859375 10.5078125 C-53.4259375 10.5078125 -52.7659375 10.5078125 -52.0859375 10.5078125 C-51.8796875 9.6209375 -51.6734375 8.7340625 -51.4609375 7.8203125 C-48.44220523 0.54791204 -40.990372 -2.52988887 -34.0859375 -5.4921875 C-22.75243781 -9.3097874 -9.68917983 -6.44658578 0 0 Z " fill="#000000" transform="translate(834.0859375,43.4921875)"/>
</svg>
